<svg id="Layer_1" data-name="Layer 1" xmlns="http://www.w3.org/2000/svg" viewBox="0 0 181.18 202.84"><title>playground</title><path d="M130,40.34c9.31-8.82,17.22-18.92,26-28.27,2.61-2.8,5.06-5.75,7.73-8.49,4.28-4.39,10.07-4.73,14.26-1s4.47,9.77.48,14.3c-10.46,11.86-21.08,23.57-31.63,35.35a16.87,16.87,0,0,0-1.14,1.61Q131.85,69,118.06,84.14c-1.38,1.5-1.08,2.76-.48,4.49,5.48,15.86.41,29.3-14.3,37.8-1.8,1-2.69,2-2.66,4.17.17,11.49.19,23,.27,34.48q-.11,13-.23,25.92c-.07,7.16-4,11.79-10,11.83s-9.93-4.5-10-11.73q-.11-13-.24-25.92c.08-11.3.11-22.6.3-33.9,0-2.18-.82-3.16-2.69-4.1-16.35-8.2-21.95-22.82-15.31-40,.7-1.82.62-2.92-.71-4.36C52.94,73,43.93,63,34.89,53Q19.49,35.66,4.07,18.35C1.55,15.53-.56,12.58.14,8.56A9.62,9.62,0,0,1,7.31.42C11.58-.79,15.12.66,18,3.94Q32,19.57,46,35.15c1.21,1.35,2.53,2.61,3.8,3.91,9,10.2,18.12,20.38,27.1,30.64,1.45,1.66,2.91,1.8,4.85,1.26a29.66,29.66,0,0,1,17.69.45c1.31.44,2.5,1,3.61-.36C111.89,60.69,121.65,51.15,130,40.34ZM89.59,116.13c9.56.06,17-7,17.11-16.39.15-8.52-7.84-16.54-16.6-16.66C81.12,83,73.26,90.62,73,99.76,72.74,108.54,80.38,116.08,89.59,116.13Z" transform="translate(0 0)" style="fill:#454645"/><path d="M34.89,53c9,10,18,20,27.15,29.87,1.33,1.45,1.42,2.55.71,4.36-6.64,17.14-1,31.75,15.31,40,1.87.94,2.73,1.92,2.69,4.1-.18,11.3-.21,22.6-.3,33.9-19.46-2-34.69-11.43-46.36-26.75C15.76,114.41,14.24,80.37,34.89,53Z" transform="translate(0 0)" style="fill:#b2e0cd"/><path d="M100.89,165.09c-.07-11.49-.1-23-.27-34.48,0-2.17.86-3.13,2.66-4.17,14.71-8.5,19.78-21.95,14.3-37.8-.6-1.73-.89-3,.48-4.49q13.83-15.09,27.54-30.29A84.58,84.58,0,0,1,158.25,81.8c8.05,34.42-14.2,72.18-48.15,81.39C107.06,164,104.14,165.35,100.89,165.09Z" transform="translate(0 0)" style="fill:#b2e0cd"/><path d="M130,40.34c-8.31,10.81-18.07,20.34-26.88,30.71-1.11,1.31-2.29.8-3.61.36A29.66,29.66,0,0,0,81.78,71c-1.94.54-3.4.4-4.85-1.26-9-10.26-18.06-20.44-27.1-30.64q37.71-23.92,76.69-2.13C128,37.75,129.41,38.6,130,40.34Z" transform="translate(0 0)" style="fill:#b2dfcd"/><path d="M89.63,116.13c-9.21-.06-16.85-7.59-16.6-16.37C73.3,90.62,81.16,83,90.15,83.08c8.76.12,16.75,8.14,16.6,16.66C106.59,109.11,99.19,116.19,89.63,116.13Z" transform="translate(0 0)" style="fill:#01985a"/><polygon points="83.19 109.42 100.19 99.61 83.19 89.79 83.19 109.42" style="fill:#454645"/></svg>